<svg width="208" height="51" viewBox="0 0 208 51" fill="none" xmlns="http://www.w3.org/2000/svg">
<path d="M49.1026 0.635532V4.32162H42.8744V21.4527H38.4963V4.32162H32.2398V0.635532H49.1026Z" fill="black"/>
<path d="M51.6306 21.4527V0.635532H55.9381V8.57262H64.0729V0.635532H68.3945V21.4527H64.0729V12.1598H55.9381V21.4527H51.6306Z" fill="black"/>
<path d="M81.769 18.3457C83.492 18.3457 84.8572 17.7102 85.8646 16.4391C86.8815 15.168 87.3899 13.3603 87.3899 11.0159C87.3899 8.6809 86.8815 6.87787 85.8646 5.6068C84.8572 4.32633 83.492 3.68609 81.769 3.68609C80.046 3.68609 78.6713 4.32162 77.6451 5.59268C76.6188 6.86375 76.1057 8.67148 76.1057 11.0159C76.1057 13.3603 76.6188 15.168 77.6451 16.4391C78.6713 17.7102 80.046 18.3457 81.769 18.3457ZM91.7398 11.0159C91.7398 14.7538 90.6899 17.616 88.5903 19.6026C87.018 21.2221 84.7442 22.0318 81.769 22.0318C78.7937 22.0318 76.5199 21.2221 74.9476 19.6026C72.8386 17.616 71.784 14.7538 71.784 11.0159C71.784 7.2027 72.8386 4.34045 74.9476 2.42914C76.5199 0.809715 78.7937 0 81.769 0C84.7442 0 87.018 0.809715 88.5903 2.42914C90.6899 4.34045 91.7398 7.2027 91.7398 11.0159Z" fill="black"/>
<path d="M95.0728 0.635532H99.4932V13.4309C99.4932 14.862 99.6627 15.9071 100.002 16.5662C100.529 17.7337 101.678 18.3174 103.448 18.3174C105.208 18.3174 106.352 17.7337 106.88 16.5662C107.218 15.9071 107.388 14.862 107.388 13.4309V0.635532H111.808V13.4309C111.808 15.6435 111.465 17.3665 110.777 18.5999C109.497 20.8596 107.054 21.9894 103.448 21.9894C99.8416 21.9894 97.3936 20.8596 96.1037 18.5999C95.4164 17.3665 95.0728 15.6435 95.0728 13.4309V0.635532Z" fill="black"/>
<path d="M129.971 7.13208C129.641 5.71037 128.836 4.71706 127.556 4.15214C126.84 3.84144 126.044 3.68609 125.169 3.68609C123.493 3.68609 122.113 4.32162 121.031 5.59268C119.957 6.85433 119.421 8.75622 119.421 11.2983C119.421 13.8593 120.004 15.6717 121.172 16.7357C122.339 17.7996 123.667 18.3316 125.155 18.3316C126.614 18.3316 127.81 17.9126 128.742 17.0746C129.674 16.2273 130.248 15.121 130.465 13.7557H125.649V10.2815H134.32V21.4527H131.439L131.002 18.8541C130.164 19.8427 129.41 20.5395 128.742 20.9443C127.593 21.6505 126.181 22.0035 124.505 22.0035C121.746 22.0035 119.487 21.0479 117.726 19.1366C115.89 17.2159 114.972 14.589 114.972 11.256C114.972 7.8853 115.899 5.18312 117.754 3.14941C119.609 1.11571 122.062 0.0988605 125.112 0.0988605C127.758 0.0988605 129.881 0.772054 131.482 2.11844C133.092 3.45541 134.014 5.12663 134.25 7.13208H129.971Z" fill="black"/>
<path d="M138.458 21.4527V0.635532H142.766V8.57262H150.901V0.635532H155.222V21.4527H150.901V12.1598H142.766V21.4527H138.458Z" fill="black"/>
<path d="M174.514 0.635532V4.32162H168.286V21.4527H163.908V4.32162H157.651V0.635532H174.514Z" fill="black"/>
<path d="M0 29.367H15.1257V31.9091H2.73985V38.2079H14.1935V40.6088H2.73985V47.642H15.3375V50.1136H0V29.367Z" fill="black"/>
<path d="M21.3816 50.1136H17.9921L25.4207 39.479L18.4581 29.367H21.9747L27.2708 37.3041L32.5246 29.367H35.8717L28.9091 39.479L36.2106 50.1136H32.7223L27.1296 41.5833L21.3816 50.1136Z" fill="black"/>
<path d="M39.7408 29.367H49.0761C50.9215 29.367 52.4091 29.8895 53.5389 30.9346C54.6687 31.9703 55.2337 33.4297 55.2337 35.3127C55.2337 36.9322 54.7299 38.3445 53.7225 39.5496C52.7151 40.7453 51.1663 41.3432 49.0761 41.3432H42.5513V50.1136H39.7408V29.367ZM52.395 35.3269C52.395 33.8016 51.83 32.7659 50.7002 32.2198C50.0788 31.9279 49.2267 31.782 48.144 31.782H42.5513V38.9706H48.144C49.4056 38.9706 50.4272 38.7022 51.2086 38.1656C51.9995 37.6289 52.395 36.6827 52.395 35.3269Z" fill="black"/>
<path d="M59.6112 29.367H74.7369V31.9091H62.3511V38.2079H73.8048V40.6088H62.3511V47.642H74.9487V50.1136H59.6112V29.367Z" fill="black"/>
<path d="M88.8592 38.8717C90.1774 38.8717 91.2178 38.6081 91.9804 38.0808C92.7525 37.5536 93.1385 36.6026 93.1385 35.228C93.1385 33.7498 92.6018 32.7424 91.5285 32.2057C90.9541 31.9232 90.1868 31.782 89.2264 31.782H82.3627V38.8717H88.8592ZM79.5522 29.367H89.1558C90.7376 29.367 92.0416 29.5976 93.0679 30.059C95.0168 30.944 95.9913 32.5776 95.9913 34.9597C95.9913 36.2025 95.7324 37.2193 95.2146 38.0102C94.7061 38.8011 93.9906 39.4366 93.0679 39.9168C93.8776 40.2463 94.4849 40.6794 94.8897 41.2161C95.304 41.7528 95.5347 42.6237 95.5818 43.8289L95.6806 46.6111C95.7089 47.402 95.7748 47.9904 95.8783 48.3764C96.0478 49.0355 96.3491 49.4592 96.7822 49.6475V50.1136H93.3362C93.2421 49.9347 93.1667 49.704 93.1102 49.4215C93.0537 49.1391 93.0067 48.593 92.969 47.7833L92.7995 44.3232C92.7336 42.9674 92.2299 42.0588 91.2884 41.5974C90.7517 41.3432 89.909 41.2161 88.7604 41.2161H82.3627V50.1136H79.5522V29.367Z" fill="black"/>
<path d="M101.329 29.367H104.168V50.1136H101.329V29.367Z" fill="black"/>
<path d="M109.591 29.367H124.716V31.9091H112.33V38.2079H123.784V40.6088H112.33V47.642H124.928V50.1136H109.591V29.367Z" fill="black"/>
<path d="M129.193 29.367H132.512L142.991 46.1733V29.367H145.66V50.1136H142.511L131.876 33.3214V50.1136H129.193V29.367Z" fill="black"/>
<path d="M159.415 28.8021C162.042 28.8021 164.08 29.4941 165.53 30.8781C166.98 32.2622 167.785 33.8345 167.945 35.5952H165.206C164.895 34.2582 164.273 33.199 163.341 32.4175C162.419 31.6361 161.119 31.2453 159.443 31.2453C157.4 31.2453 155.748 31.9656 154.486 33.4061C153.234 34.8373 152.608 37.0357 152.608 40.0015C152.608 42.4307 153.173 44.4032 154.303 45.9191C155.442 47.4255 157.137 48.1787 159.387 48.1787C161.458 48.1787 163.035 47.3831 164.118 45.7919C164.692 44.954 165.121 43.8524 165.403 42.4872H168.143C167.898 44.6715 167.089 46.5028 165.714 47.981C164.066 49.7605 161.844 50.6502 159.048 50.6502C156.638 50.6502 154.613 49.9206 152.975 48.4612C150.819 46.531 149.741 43.5511 149.741 39.5214C149.741 36.4614 150.551 33.9522 152.17 31.9938C153.921 29.866 156.336 28.8021 159.415 28.8021Z" fill="black"/>
<path d="M172.422 29.367H187.547V31.9091H175.162V38.2079H186.615V40.6088H175.162V47.642H187.759V50.1136H172.422V29.367Z" fill="black"/>
<path d="M193.86 43.4193C193.926 44.5962 194.204 45.5519 194.693 46.2862C195.625 47.6609 197.268 48.3482 199.622 48.3482C200.677 48.3482 201.637 48.1976 202.503 47.8963C204.179 47.3125 205.017 46.2674 205.017 44.761C205.017 43.6311 204.664 42.8261 203.958 42.346C203.242 41.8752 202.122 41.4656 200.597 41.1173L197.786 40.4817C195.95 40.0674 194.651 39.6108 193.888 39.1118C192.57 38.2456 191.911 36.951 191.911 35.228C191.911 33.3638 192.556 31.8338 193.846 30.638C195.136 29.4423 196.962 28.8444 199.325 28.8444C201.5 28.8444 203.346 29.3717 204.862 30.4262C206.387 31.4713 207.15 33.1472 207.15 35.454H204.509C204.367 34.343 204.066 33.4909 203.605 32.8977C202.748 31.8149 201.293 31.2736 199.241 31.2736C197.584 31.2736 196.393 31.6219 195.668 32.3187C194.943 33.0154 194.58 33.8251 194.58 34.7478C194.58 35.7647 195.004 36.5085 195.851 36.9792C196.407 37.2805 197.664 37.6571 199.622 38.1091L202.531 38.7728C203.934 39.093 205.017 39.5308 205.78 40.0863C207.098 41.0561 207.757 42.4636 207.757 44.309C207.757 46.6064 206.919 48.2493 205.243 49.2379C203.576 50.2265 201.637 50.7208 199.424 50.7208C196.845 50.7208 194.825 50.0618 193.366 48.7436C191.906 47.4349 191.191 45.6601 191.219 43.4193H193.86Z" fill="black"/>
</svg>
